<svg xmlns="http://www.w3.org/2000/svg" xmlns:xlink="http://www.w3.org/1999/xlink" width="200" zoomAndPan="magnify" viewBox="0 0 150 30.000001" height="40" preserveAspectRatio="xMidYMid meet" version="1.0"><defs><g/></defs><g fill="#000000" fill-opacity="1"><g transform="translate(8.067929, 17.78226)"><g><path d="M 6.085938 0.261719 C 9.722656 0.261719 11.148438 -1.191406 11.363281 -4.164062 L 8.933594 -4.164062 C 8.808594 -2.554688 8.035156 -1.671875 6.054688 -1.671875 C 3.996094 -1.671875 3.160156 -2.863281 3.160156 -5.140625 C 3.160156 -7.445312 4.054688 -8.636719 6.128906 -8.636719 C 8.035156 -8.636719 8.761719 -7.773438 8.902344 -6.253906 L 11.316406 -6.253906 C 11.085938 -9.070312 9.644531 -10.558594 6.101562 -10.558594 C 2.230469 -10.558594 0.695312 -7.988281 0.695312 -5.140625 C 0.695312 -2.246094 2.214844 0.261719 6.085938 0.261719 Z M 6.085938 0.261719 "/></g></g></g><g fill="#000000" fill-opacity="1"><g transform="translate(20.049572, 17.78226)"><g><path d="M 4.859375 0.246094 C 7.957031 0.246094 9.148438 -1.734375 9.148438 -3.886719 C 9.148438 -6.007812 7.957031 -7.988281 4.859375 -7.988281 C 1.78125 -7.988281 0.574219 -6.023438 0.574219 -3.886719 C 0.574219 -1.71875 1.78125 0.246094 4.859375 0.246094 Z M 2.878906 -3.871094 C 2.878906 -5.589844 3.46875 -6.191406 4.859375 -6.191406 C 6.269531 -6.191406 6.859375 -5.589844 6.859375 -3.871094 C 6.859375 -2.152344 6.269531 -1.546875 4.859375 -1.546875 C 3.46875 -1.546875 2.878906 -2.152344 2.878906 -3.871094 Z M 2.878906 -3.871094 "/></g></g></g><g fill="#000000" fill-opacity="1"><g transform="translate(29.77111, 17.78226)"><g><path d="M 3.390625 -1.6875 L 7.832031 -6.070312 L 7.832031 -7.742188 L 0.679688 -7.742188 L 0.679688 -6.070312 L 5.125 -6.070312 L 0.621094 -1.6875 L 0.621094 0 L 7.878906 0 L 7.878906 -1.6875 Z M 3.390625 -1.6875 "/></g></g></g><g fill="#000000" fill-opacity="1"><g transform="translate(38.223273, 17.78226)"><g><path d="M 6.65625 -7.742188 L 5 -2.910156 L 4.644531 -1.640625 L 4.242188 -2.910156 L 2.539062 -7.742188 L 0.203125 -7.742188 L 2.847656 -0.140625 L 4.164062 -0.140625 L 3.652344 1.285156 L 0.664062 1.285156 L 0.664062 3.097656 L 2.601562 3.097656 C 4.832031 3.097656 5.496094 2.121094 6.128906 0.230469 L 8.839844 -7.742188 Z M 6.65625 -7.742188 "/></g></g></g><g fill="#000000" fill-opacity="1"><g transform="translate(47.217244, 17.78226)"><g><path d="M 5.851562 -10.296875 L 0.898438 -10.296875 L 0.898438 0 L 5.851562 0 C 9.195312 0 10.714844 -2.445312 10.714844 -5.171875 C 10.714844 -7.878906 9.195312 -10.296875 5.851562 -10.296875 Z M 5.324219 -1.875 L 3.25 -1.875 L 3.25 -8.4375 L 5.324219 -8.4375 C 7.414062 -8.4375 8.265625 -7.371094 8.265625 -5.171875 C 8.265625 -2.988281 7.429688 -1.875 5.324219 -1.875 Z M 5.324219 -1.875 "/></g></g></g><g fill="#000000" fill-opacity="1"><g transform="translate(58.517757, 17.78226)"><g><path d="M 5.496094 -7.863281 C 4.195312 -7.863281 3.5 -7.183594 3.128906 -6.085938 L 3.128906 -7.742188 L 0.898438 -7.742188 L 0.898438 0 L 3.1875 0 L 3.1875 -3.050781 C 3.1875 -4.800781 3.714844 -5.636719 5.25 -5.636719 L 6.007812 -5.636719 L 6.007812 -7.863281 Z M 5.496094 -7.863281 "/></g></g></g><g fill="#000000" fill-opacity="1"><g transform="translate(64.880103, 17.78226)"><g><path d="M 4.785156 -1.332031 C 3.683594 -1.332031 2.957031 -1.8125 2.816406 -3.28125 L 8.714844 -3.28125 C 8.746094 -3.453125 8.746094 -3.667969 8.746094 -3.902344 C 8.746094 -6.085938 7.664062 -7.988281 4.738281 -7.988281 C 1.875 -7.988281 0.574219 -6.128906 0.574219 -3.886719 C 0.574219 -1.703125 1.71875 0.246094 4.738281 0.246094 C 7.523438 0.246094 8.515625 -1.097656 8.730469 -2.335938 L 6.53125 -2.335938 C 6.316406 -1.765625 5.789062 -1.332031 4.785156 -1.332031 Z M 4.769531 -6.441406 C 5.914062 -6.441406 6.488281 -5.851562 6.5625 -4.675781 L 2.832031 -4.675781 C 3.019531 -5.992188 3.667969 -6.441406 4.769531 -6.441406 Z M 4.769531 -6.441406 "/></g></g></g><g fill="#000000" fill-opacity="1"><g transform="translate(74.168191, 17.78226)"><g><path d="M 3.25 0.203125 C 4.832031 0.203125 5.757812 -0.589844 6.113281 -1.65625 C 6.113281 -1.023438 6.160156 -0.511719 6.238281 0 L 8.234375 0 C 8.160156 -0.664062 8.113281 -1.285156 8.113281 -2.011719 L 8.113281 -5.355469 C 8.113281 -6.996094 6.964844 -8.003906 4.613281 -8.003906 C 2.261719 -8.003906 0.898438 -6.875 0.835938 -5.21875 L 3.082031 -5.21875 C 3.113281 -6.007812 3.605469 -6.425781 4.660156 -6.425781 C 5.695312 -6.425781 6.007812 -6.070312 6.007812 -5.527344 C 6.007812 -5.078125 5.757812 -4.875 5.046875 -4.753906 L 3.21875 -4.441406 C 1.222656 -4.101562 0.679688 -3.296875 0.679688 -2.058594 C 0.679688 -0.664062 1.6875 0.203125 3.25 0.203125 Z M 4.023438 -1.363281 C 3.40625 -1.363281 2.941406 -1.671875 2.941406 -2.292969 C 2.941406 -2.878906 3.265625 -3.171875 4.085938 -3.375 L 4.738281 -3.53125 C 5.21875 -3.636719 5.605469 -3.746094 6.007812 -4.023438 L 6.007812 -3.683594 C 6.007812 -2.246094 5.234375 -1.363281 4.023438 -1.363281 Z M 4.023438 -1.363281 "/></g></g></g><g fill="#000000" fill-opacity="1"><g transform="translate(83.131196, 17.78226)"><g><path d="M 11.164062 -7.988281 C 9.707031 -7.988281 8.855469 -7.261719 8.390625 -6.191406 C 8.050781 -7.339844 7.214844 -7.988281 5.835938 -7.988281 C 4.488281 -7.988281 3.652344 -7.324219 3.1875 -6.332031 L 3.1875 -7.742188 L 0.898438 -7.742188 L 0.898438 0 L 3.1875 0 L 3.1875 -3.515625 C 3.1875 -5.355469 3.777344 -6.128906 4.9375 -6.128906 C 5.867188 -6.128906 6.332031 -5.589844 6.332031 -4.425781 L 6.332031 0 L 8.578125 0 L 8.578125 -3.515625 C 8.578125 -5.355469 9.164062 -6.128906 10.324219 -6.128906 C 11.253906 -6.128906 11.71875 -5.589844 11.71875 -4.425781 L 11.71875 0 L 14.011719 0 L 14.011719 -4.753906 C 14.011719 -6.78125 13.128906 -7.988281 11.164062 -7.988281 Z M 11.164062 -7.988281 "/></g></g></g><g fill="#71a9cb" fill-opacity="1"><g transform="translate(97.263967, 17.782252)"><g><path d="M 7.957031 -10.296875 L 7.957031 -6.175781 L 3.234375 -6.175781 L 3.234375 -10.296875 L 0.898438 -10.296875 L 0.898438 0 L 3.234375 0 L 3.234375 -4.335938 L 7.957031 -4.335938 L 7.957031 0 L 10.3125 0 L 10.3125 -10.296875 Z M 7.957031 -10.296875 "/></g></g></g><g fill="#71a9cb" fill-opacity="1"><g transform="translate(108.456122, 17.782252)"><g><path d="M 4.859375 0.246094 C 7.957031 0.246094 9.148438 -1.734375 9.148438 -3.886719 C 9.148438 -6.007812 7.957031 -7.988281 4.859375 -7.988281 C 1.78125 -7.988281 0.574219 -6.023438 0.574219 -3.886719 C 0.574219 -1.71875 1.78125 0.246094 4.859375 0.246094 Z M 2.878906 -3.871094 C 2.878906 -5.589844 3.46875 -6.191406 4.859375 -6.191406 C 6.269531 -6.191406 6.859375 -5.589844 6.859375 -3.871094 C 6.859375 -2.152344 6.269531 -1.546875 4.859375 -1.546875 C 3.46875 -1.546875 2.878906 -2.152344 2.878906 -3.871094 Z M 2.878906 -3.871094 "/></g></g></g><g fill="#71a9cb" fill-opacity="1"><g transform="translate(118.177661, 17.782252)"><g><path d="M 6.457031 -7.742188 L 6.457031 -4.226562 C 6.457031 -2.476562 5.742188 -1.625 4.597656 -1.625 C 3.621094 -1.625 3.082031 -2.121094 3.082031 -3.34375 L 3.082031 -7.742188 L 0.789062 -7.742188 L 0.789062 -3.003906 C 0.789062 -0.976562 1.6875 0.246094 3.714844 0.246094 C 5.109375 0.246094 5.976562 -0.449219 6.457031 -1.484375 L 6.457031 0 L 8.746094 0 L 8.746094 -7.742188 Z M 6.457031 -7.742188 "/></g></g></g><g fill="#71a9cb" fill-opacity="1"><g transform="translate(127.821796, 17.782252)"><g><path d="M 0.402344 -2.523438 C 0.449219 -1.054688 1.484375 0.246094 4.242188 0.246094 C 6.90625 0.246094 7.863281 -0.804688 7.863281 -2.320312 C 7.863281 -3.699219 7.167969 -4.488281 5.324219 -4.722656 L 3.699219 -4.90625 C 2.925781 -5 2.726562 -5.308594 2.726562 -5.695312 C 2.726562 -6.191406 3.128906 -6.5625 4.117188 -6.5625 C 5.078125 -6.5625 5.558594 -6.113281 5.636719 -5.480469 L 7.757812 -5.480469 C 7.617188 -7.183594 6.207031 -8.003906 4.117188 -8.003906 C 2.058594 -8.003906 0.605469 -7.199219 0.605469 -5.480469 C 0.605469 -4.179688 1.394531 -3.40625 2.847656 -3.21875 L 4.582031 -3.003906 C 5.449219 -2.894531 5.667969 -2.554688 5.667969 -2.089844 C 5.667969 -1.546875 5.308594 -1.191406 4.273438 -1.191406 C 3.113281 -1.191406 2.554688 -1.78125 2.492188 -2.523438 Z M 0.402344 -2.523438 "/></g></g></g><g fill="#71a9cb" fill-opacity="1"><g transform="translate(136.150119, 17.782252)"><g><path d="M 4.785156 -1.332031 C 3.683594 -1.332031 2.957031 -1.8125 2.816406 -3.28125 L 8.714844 -3.28125 C 8.746094 -3.453125 8.746094 -3.667969 8.746094 -3.902344 C 8.746094 -6.085938 7.664062 -7.988281 4.738281 -7.988281 C 1.875 -7.988281 0.574219 -6.128906 0.574219 -3.886719 C 0.574219 -1.703125 1.71875 0.246094 4.738281 0.246094 C 7.523438 0.246094 8.515625 -1.097656 8.730469 -2.335938 L 6.53125 -2.335938 C 6.316406 -1.765625 5.789062 -1.332031 4.785156 -1.332031 Z M 4.769531 -6.441406 C 5.914062 -6.441406 6.488281 -5.851562 6.5625 -4.675781 L 2.832031 -4.675781 C 3.019531 -5.992188 3.667969 -6.441406 4.769531 -6.441406 Z M 4.769531 -6.441406 "/></g></g></g></svg>